<?xml version="1.0" standalone="no"?>
<!DOCTYPE svg PUBLIC "-//W3C//DTD SVG 20010904//EN"
 "http://www.w3.org/TR/2001/REC-SVG-20010904/DTD/svg10.dtd">
<svg version="1.0" xmlns="http://www.w3.org/2000/svg"
 width="32.000000pt" height="32.000000pt" viewBox="0 0 32.000000 32.000000"
 preserveAspectRatio="xMidYMid meet">

<g transform="translate(0.000000,32.000000) scale(0.100000,-0.100000)"
fill="#000000" stroke="none">
<path d="M30 300 c-6 -12 -9 -72 -8 -151 2 -108 6 -134 19 -142 13 -8 45 6
143 62 121 69 135 82 118 107 -9 14 -235 144 -250 144 -6 0 -16 -9 -22 -20z
m173 -87 c42 -25 77 -48 77 -53 0 -5 -35 -28 -77 -53 -43 -25 -95 -55 -115
-67 l-38 -22 0 142 0 142 38 -22 c20 -12 72 -42 115 -67z"/>
<path d="M131 196 c-7 -8 -22 -16 -34 -18 -27 -4 -34 -40 -11 -59 14 -12 19
-10 34 8 10 12 20 20 23 17 13 -13 48 18 45 39 -4 26 -39 35 -57 13z m39 -22
c0 -16 -16 -19 -25 -4 -8 13 4 32 16 25 5 -4 9 -13 9 -21z m-59 -13 c-7 -5
-10 -14 -7 -20 4 -6 2 -11 -3 -11 -12 0 -15 23 -4 33 3 4 11 7 17 7 6 0 5 -4
-3 -9z"/>
<path d="M153 124 c-38 -23 -55 -44 -36 -44 14 0 93 51 93 60 0 15 -11 12 -57
-16z"/>
</g>
</svg>
